<mxfile host="app.diagrams.net" modified="2023-11-24T15:53:09.515Z" agent="Mozilla/5.0 (Windows NT 10.0; Win64; x64) AppleWebKit/537.36 (KHTML, like Gecko) Chrome/119.0.0.0 Safari/537.36" version="22.1.3" etag="IZ_3Gzg_2TX7nrosNxQN" type="github">
  <diagram name="PÃ¡gina-1" id="1p9MLbdkHiL7sxDNg0q2">
    <mxGraphModel>
      <root>
        <mxCell id="0" />
        <mxCell id="1" parent="0" />
      </root>
    </mxGraphModel>
  </diagram>
</mxfile>
